<?xml version="1.0" encoding="utf-8"?>
<!-- Generator: Adobe Illustrator 27.5.0, SVG Export Plug-In . SVG Version: 6.00 Build 0)  -->
<svg version="1.1" xmlns="http://www.w3.org/2000/svg" xmlns:xlink="http://www.w3.org/1999/xlink" x="0px" y="0px"
	 viewBox="0 0 500 500" style="enable-background:new 0 0 500 500;" xml:space="preserve">
<g id="Floor">
	<ellipse style="fill:#F5F5F5;" cx="250.475" cy="356.579" rx="221.045" ry="130.228"/>
</g>
<g id="Shadows">
	<ellipse style="fill:#E0E0E0;" cx="98.524" cy="357.37" rx="26.256" ry="15.468"/>
	<ellipse style="fill:#E0E0E0;" cx="173.277" cy="397.995" rx="44.565" ry="26.256"/>
	<ellipse style="fill:#E0E0E0;" cx="298.233" cy="323.091" rx="44.565" ry="26.256"/>
	<ellipse style="fill:#E0E0E0;" cx="345.687" cy="348.533" rx="37.404" ry="22.037"/>
	<ellipse style="fill:#E0E0E0;" cx="393.129" cy="379.776" rx="44.565" ry="26.256"/>
	<ellipse style="fill:#E0E0E0;" cx="223.994" cy="276.398" rx="37.404" ry="22.037"/>
</g>
<g id="Table_1">
	<g>
		<g>
			<path style="fill:#BA68C8;" d="M242.264,285.491c-10.09,5.825-26.449,5.825-36.539,0c-10.09-5.826-10.09-15.27,0-21.096
				c10.09-5.825,26.449-5.825,36.539,0C252.354,270.22,252.354,279.665,242.264,285.491z"/>
			<path style="opacity:0.4;" d="M242.264,285.491c-10.09,5.825-26.449,5.825-36.539,0c-10.09-5.826-10.09-15.27,0-21.096
				c10.09-5.825,26.449-5.825,36.539,0C252.354,270.22,252.354,279.665,242.264,285.491z"/>
			<path style="fill:#BA68C8;" d="M242.264,285.491c-10.09,5.825-26.449,5.825-36.539,0c-5.045-2.913-7.568-6.73-7.568-10.548l0,0
				v3.132h0.009c0.095,3.744,2.61,7.471,7.558,10.328c10.09,5.826,26.449,5.826,36.539,0c5.163-2.981,7.677-6.909,7.556-10.816
				v-2.375C249.705,278.938,247.191,282.646,242.264,285.491z"/>
			<path style="opacity:0.6;" d="M242.264,285.491c-10.09,5.825-26.449,5.825-36.539,0c-5.045-2.913-7.568-6.73-7.568-10.548l0,0
				v3.132h0.009c0.095,3.744,2.61,7.471,7.558,10.328c10.09,5.826,26.449,5.826,36.539,0c5.163-2.981,7.677-6.909,7.556-10.816
				v-2.375C249.705,278.938,247.191,282.646,242.264,285.491z"/>
		</g>
		<g>
			<path style="fill:#BA68C8;" d="M220.514,177.868c0,42.744,0,16.035,0,58.779c0,12.13,0,24.26,0,36.39c0,4.479,6.96,4.486,6.96,0
				c0-42.744,0-83.038,0-95.169C227.474,173.389,220.514,173.382,220.514,177.868L220.514,177.868z"/>
		</g>
		<g>
			<path style="fill:#BA68C8;" d="M215.889,163.266v21.162l0,0c0,1.198,0.791,2.395,2.374,3.309c3.165,1.827,8.297,1.827,11.462,0
				c1.583-0.914,2.374-2.111,2.374-3.309v-21.162H215.889z"/>
			<path style="opacity:0.7;" d="M215.889,163.266v21.162l0,0c0,1.198,0.791,2.395,2.374,3.309c3.165,1.827,8.297,1.827,11.462,0
				c1.583-0.914,2.374-2.111,2.374-3.309v-21.162H215.889z"/>
		</g>
		<g>
			<ellipse style="fill:#BA68C8;" cx="223.994" cy="136.634" rx="47.455" ry="27.398"/>
			<ellipse style="opacity:0.4;" cx="223.994" cy="136.634" rx="47.455" ry="27.398"/>
			<path style="fill:#BA68C8;" d="M257.55,156.007c-18.532,10.7-48.579,10.699-67.111,0c-9.266-5.35-13.899-12.362-13.899-19.373
				l0,0v5.752h0.017c0.175,6.876,4.795,13.722,13.883,18.969c18.532,10.7,48.579,10.7,67.111,0
				c9.483-5.475,14.101-12.691,13.879-19.866v-4.363C271.217,143.973,266.599,150.783,257.55,156.007z"/>
			<path style="opacity:0.6;" d="M257.55,156.007c-18.532,10.7-48.579,10.699-67.111,0c-9.266-5.35-13.899-12.362-13.899-19.373l0,0
				v5.752h0.017c0.175,6.876,4.795,13.722,13.883,18.969c18.532,10.7,48.579,10.7,67.111,0c9.483-5.475,14.101-12.691,13.879-19.866
				v-4.363C271.217,143.973,266.599,150.783,257.55,156.007z"/>
		</g>
	</g>
</g>
<g id="Plant">
	<g>
		<g>
			<path style="fill:#BA68C8;" d="M99.767,323.704c0,0-14.559-14.217-6.273-38.033c4.644-13.348,20.029-23.149,28.793-24.071
				c0,0-4.754,5.478-6.847,11.546l-11.036,7.337l10.144-3.176l-2.16,8.683c0,0-9.436,5.705-10.833,6.95l10.171-2.658
				C111.726,290.282,110.946,314.866,99.767,323.704z"/>
			<path style="opacity:0.4;" d="M99.767,323.704c0,0-14.559-14.217-6.273-38.033c4.644-13.348,20.029-23.149,28.793-24.071
				c0,0-4.754,5.478-6.847,11.546l-11.036,7.337l10.144-3.176l-2.16,8.683c0,0-9.436,5.705-10.833,6.95l10.171-2.658
				C111.726,290.282,110.946,314.866,99.767,323.704z"/>
			<path style="fill:#FFFFFF;" d="M99.767,323.704c0,0-7.539-29.752,3.614-47.101C103.381,276.603,90.307,291.912,99.767,323.704z"
				/>
		</g>
		<path style="fill:#37474F;" d="M116.429,327.732l-17.813-0.223v-0.002l-0.091,0.001l-0.091-0.001v0.002l-17.813,0.223
			c0,0-0.197,21.945,6.561,30.874h0c1.866,2.374,6.242,4.04,11.343,4.04c5.11,0,9.491-1.672,11.352-4.052
			C116.626,349.657,116.429,327.732,116.429,327.732z"/>
		<ellipse style="fill:#455A64;" cx="98.524" cy="327.732" rx="17.905" ry="9.612"/>
		<g>
			<path style="fill:#263238;" d="M98.524,325.182c6.16,0,11.377,1.976,13.215,4.712c0.457-0.681,0.714-1.406,0.714-2.162
				c0-3.797-6.236-6.874-13.928-6.874c-7.692,0-13.928,3.078-13.928,6.874c0,0.756,0.257,1.482,0.714,2.162
				C87.148,327.158,92.364,325.182,98.524,325.182z"/>
			<g>
				<path style="fill:#E0E0E0;" d="M98.524,325.182c-6.16,0-11.377,1.976-13.214,4.712c1.838,2.736,7.054,4.712,13.214,4.712
					c6.16,0,11.377-1.976,13.215-4.712C109.901,327.158,104.685,325.182,98.524,325.182z"/>
			</g>
		</g>
		<g>
			<path style="fill:#BA68C8;" d="M98.743,331.082c0,0-6.9-0.268-12.819-9.432c-2.441-3.779-3.618-5.765-3.618-5.765l9.614-0.716
				l-10.771-2.692l-5.09-7.786l8.945-0.664c0,0-6.662-2.334-11.419-2.364c0,0-8.249-14.572-10.661-16.648
				c0,0,19.024,0.157,32.584,16.19C109.069,317.236,100.755,331.492,98.743,331.082z"/>
			<path style="fill:#FFFFFF;" d="M98.743,331.082c0,0,4.316-25.994-23.225-41.63C75.518,289.452,104.102,303.183,98.743,331.082z"
				/>
		</g>
		<g>
			<path style="fill:#BA68C8;" d="M98.743,331.082c0,0,6.251,0.408,12.454-7.303c2.558-3.18,3.807-4.861,3.807-4.861l-8.606-1.551
				l9.971-1.415l5.325-6.546l-8.008-1.441c0,0,6.231-1.478,10.525-1.058c0,0,8.814-12.37,11.186-14.016
				c0,0-17.179-1.649-30.923,11.539C90.731,317.618,96.89,331.263,98.743,331.082z"/>
			<path style="opacity:0.2;" d="M98.743,331.082c0,0,6.251,0.408,12.454-7.303c2.558-3.18,3.807-4.861,3.807-4.861l-8.606-1.551
				l9.971-1.415l5.325-6.546l-8.008-1.441c0,0,6.231-1.478,10.525-1.058c0,0,8.814-12.37,11.186-14.016
				c0,0-17.179-1.649-30.923,11.539C90.731,317.618,96.89,331.263,98.743,331.082z"/>
			<path style="fill:#FFFFFF;" d="M98.743,331.082c0,0-1.446-23.859,24.874-35.373C123.618,295.709,96.536,305.406,98.743,331.082z"
				/>
		</g>
	</g>
</g>
<g id="Character_2">
	<g>
		<g>
			<path style="fill:#263238;" d="M302.854,306.003c0,0-1.783,0.964-2.111,4.782c-0.328,3.818-3.76,10.893,4.392,11.174
				c8.152,0.281,7.02,0.715,10.339,2.054c3.32,1.338,10.508,4.339,16.225,0.297c5.717-4.042-0.88-6.189-3.263-7.004
				c-2.382-0.815-8.488-3.146-11.964-5.839c-3.477-2.692-4.019-3.543-4.019-3.543L302.854,306.003z"/>
			<path style="fill:#263238;" d="M276.586,315.465c0,0-1.399,0.402-1.47,3.209c-0.071,2.807-2.265,7.028,0.735,9.551
				s3.453,2.205,5.269,6.077c1.816,3.872,6.01,9.117,14.731,7.186c8.721-1.931,3.229-7.168,2.482-7.938
				c-0.747-0.77-9.257-9.209-10.191-11.961c-0.934-2.752-1.905-4.448-1.905-4.448L276.586,315.465z"/>
			<path style="fill:#FFA8A7;" d="M276.543,311.997v5.146c0,0,0.62,2.423,5.403,2.423c2.568,0,4.248-1.527,4.291-2.424v-5.65
				L276.543,311.997z"/>
			<path style="fill:#FFA8A7;" d="M302.76,302.781v5.146c0,0,0.62,2.423,5.403,2.423c2.568,0,4.248-1.527,4.291-2.424v-5.65
				L302.76,302.781z"/>
			<path style="fill:#455A64;" d="M317.385,182.542l3.685,59.523c0.174,2.807,0.068,5.624-0.316,8.41l-7.591,55.082
				c0,0-6.099,2.711-11.258-1.571l-2.96-44.033c-0.249-3.711,0.257-7.434,1.488-10.944l1.169-3.331l-10.649-59.004L317.385,182.542z
				"/>
			<path style="fill:#37474F;" d="M310.079,198.122c0,0-1.799,7.037-10.804,11.388l-1.806,13.269l-3.899-21.604L310.079,198.122z"/>
			<path style="fill:#455A64;" d="M313.013,184.944c0,0,1.263,11.275-7.439,18.565c-4.427,3.709-8.532,4.147-8.532,4.147
				l-2.876,41.843l-7.017,65.367c0,0-4.223,3.529-12.034,0l-3.69-48.992c-0.414-5.5,0.583-11.015,2.896-16.022l0.163-0.353
				c0,0-2.926-27.406-2.099-65.419L313.013,184.944z"/>
		</g>
		<g>
			<path style="fill:#FFA8A7;" d="M324.918,141.654l3.159,6.27c0,0,14.161,5.022,22.525,4.837l3.625,8.798
				c0,0-10.316,0.856-20.165,0.224c-9.849-0.632-11.315-0.879-14.224-4.626c-2.909-3.746-7.239-10.608-7.239-10.608L324.918,141.654
				z"/>
			<path style="fill:#FFA8A7;" d="M350.603,152.76c0,0,1.238-0.832,2.123-1.776c0.885-0.943,1.402-1.9,5.078-2.808
				c2.367-0.585,2.816-2.449,4.097-1.824c1.286,0.627-0.926,4.815-3.475,5.522c0,0,3.252,0.365,5.398-0.727
				c2.146-1.092,5.526-2.577,6.89-2.111c1.365,0.465,1.553,7.997-3.379,10.832c-4.931,2.836-15.102,1.5-15.102,1.5L350.603,152.76z"
				/>
		</g>
		<path style="fill:#BA68C8;" d="M302.884,113.442L302.884,113.442c4.555-0.913,9.17,1.267,11.358,5.365l11.96,22.395
			c0,0-3.212,6.828-13.602,7.166L302.884,113.442z"/>
		<path style="opacity:0.2;fill:#FFFFFF;" d="M302.884,113.442L302.884,113.442c4.555-0.913,9.17,1.267,11.358,5.365l11.96,22.395
			c0,0-3.212,6.828-13.602,7.166L302.884,113.442z"/>
		<path style="fill:#FFA8A7;" d="M272.905,152.727l-3.584,9.204l-3.748,31.117l-9.023,2.854c0,0-0.761-18.72-0.379-31.305
			c0.102-3.367,0.726-6.693,1.857-9.867l2.524-7.087L272.905,152.727z"/>
		<path style="fill:#BA68C8;" d="M285.953,116.629l-11.364,3.255l-2.203,31.727v32.47c0,0,7.069,6.118,23.833,6.118
			c12.395,0,21.165-7.657,21.165-7.657s0-37.228,0-40.888s1.451-24.626-14.5-28.212l-2.733,0.54L285.953,116.629z"/>
		<path style="opacity:0.5;fill:#FFFFFF;" d="M285.953,116.629l-11.364,3.255l-2.203,31.727v32.47c0,0,7.069,6.118,23.833,6.118
			c12.395,0,21.165-7.657,21.165-7.657s0-37.228,0-40.888s1.451-24.626-14.5-28.212l-2.733,0.54L285.953,116.629z"/>
		<path style="fill:#BA68C8;" d="M281.019,118.042c0,0,3.789,3.752,1.058,14.274c-2.732,10.522-8.106,23.435-8.106,23.435
			s-9.095,2.174-15.418-5.673l8.071-22.338c1.408-3.896,4.599-6.881,8.581-8.026L281.019,118.042z"/>
		<path style="opacity:0.2;fill:#FFFFFF;" d="M281.019,118.042c0,0,3.789,3.752,1.058,14.274
			c-2.732,10.522-8.106,23.435-8.106,23.435s-9.095,2.174-15.418-5.673l8.071-22.338c1.408-3.896,4.599-6.881,8.581-8.026
			L281.019,118.042z"/>
		<path style="fill:#FFA8A7;" d="M265.573,193.049c0,0,0.75,1.289,1.635,2.233c0.884,0.944,1.806,1.522,2.474,5.249
			c0.431,2.4,2.262,2.968,1.556,4.207c-0.709,1.243-4.745-1.235-5.286-3.825c0,0-0.575,3.222,0.376,5.434
			c0.951,2.212,2.214,5.681,1.661,7.013c-0.553,1.332-8.08,1.033-10.591-4.072c-2.511-5.104-0.521-15.168-0.521-15.168
			L265.573,193.049z"/>
		<g>
			<path style="fill:#263238;" d="M313.212,76.712c0,0,2.656,2.716,2.656,9.843c0,7.127-5.923,13.317-5.923,13.317V77.054
				L313.212,76.712z"/>
			<path style="fill:#263238;" d="M313.212,78.571c0,0,3.725-1.877,4.101-6.428c0.376-4.551-2.295-2.923-3.221-2.525
				c-0.925,0.398-3.673,1.399-3.673,1.399s2.537-2.637,1.027-4.398c-1.117-1.303-6.499,2.801-13.311,3.604
				c-6.812,0.803-13.345,0.74-15.258,6.832c0,0-6.58,1.323-5.003,12.851c1.577,11.528,6.012,18.184,8.079,18.081L313.212,78.571z"/>
			<g>
				<g>
					<g>
						<path style="fill:#FFA8A7;" d="M285.953,116.629l5.932,3.759c2.681,1.699,6.084,1.769,8.832,0.182l0,0
							c2.293-1.324,2.404-4.593,0.205-6.069l-0.772-0.518V97.579h-14.198V116.629z"/>
					</g>
				</g>
				<path style="fill:#F28F8F;" d="M300.151,113.982c-3.798-0.332-11.043-3.617-13.043-11.625v-4.777h13.043V113.982z"/>
				<path style="fill:#FFA8A7;" d="M303.459,74.305c0,0,13.51,0.514,11.073,22.265c-1.146,10.23-1.987,15.888-10.744,15.888
					c-8.757,0-21.671-6.597-20.838-24.161C283.784,70.733,303.459,74.305,303.459,74.305z"/>
				<polygon style="fill:#F28F8F;" points="304.822,92.239 304.822,99.872 309.291,98.499 				"/>
				<g>
					<path style="fill:#263238;" d="M298.294,93.559c0,0.859,0.696,1.555,1.555,1.555c0.859,0,1.555-0.696,1.555-1.555
						c0-0.859-0.696-1.555-1.555-1.555C298.99,92.004,298.294,92.7,298.294,93.559z"/>
					<path style="fill:#263238;" d="M308.522,92.475c0,0.859,0.696,1.555,1.555,1.555c0.859,0,1.555-0.696,1.555-1.555
						c0-0.859-0.696-1.555-1.555-1.555C309.218,90.92,308.522,91.616,308.522,92.475z"/>
					<path style="fill:#263238;" d="M311.972,89.237l-3.041-1.806c0,0,1.167-1.213,2.329-0.484
						C312.421,87.675,311.972,89.237,311.972,89.237z"/>
					<path style="fill:#263238;" d="M299.039,88.712l-2.743,2.232c0,0-0.736-1.514,0.348-2.353
						C297.728,87.751,299.039,88.712,299.039,88.712z"/>
				</g>
				<path style="fill:#F28F8F;" d="M304.113,103.502c0,0-5.547-1.431-4.188-1.121c0,0-0.286,2.206,1.562,2.627
					C303.334,105.43,304.113,103.502,304.113,103.502z"/>
				<path style="fill:#263238;" d="M313.212,78.571c0,0-4.308,4.039-15.365,3.211c-11.057-0.828-10.092,2.234-8.89,7.403
					c0.83,3.568,0.904,13.032-1.849,8.394h-5.469V86.647c0-7.716,6.255-13.97,13.97-13.97h11.314L313.212,78.571z"/>
				<path style="fill:#FFA8A7;" d="M287.243,97.02c0,0-0.554-5.234-4.186-5.334c-3.988-0.109-4.526,3.73-4.472,5.097
					c0.142,3.589,3.047,7.467,8.456,7.615L287.243,97.02z"/>
			</g>
			<path style="fill:#263238;" d="M282.877,77.054c0,0-2.798-3.714-1-5.251c1.797-1.538,2.625,4.835,2.625,4.835L282.877,77.054z"/>
			<path style="fill:#263238;" d="M283.114,78.282c0,0-4.649-0.064-4.763-2.426c-0.114-2.363,5.43,0.887,5.43,0.887L283.114,78.282z
				"/>
		</g>
	</g>
</g>
<g id="Table_2">
	<g>
		<g>
			<g>
				<ellipse style="fill:#BA68C8;" cx="345.687" cy="341.662" rx="25.837" ry="14.917"/>
				<ellipse style="opacity:0.4;" cx="345.687" cy="341.662" rx="25.837" ry="14.917"/>
				<path style="fill:#BA68C8;" d="M363.957,352.21c-10.09,5.825-26.449,5.825-36.539,0c-5.045-2.913-7.568-6.73-7.568-10.548h0
					v3.132h0.009c0.095,3.744,2.611,7.471,7.558,10.328c10.09,5.826,26.449,5.826,36.539,0c5.163-2.981,7.677-6.91,7.556-10.816
					v-2.375C371.398,345.658,368.884,349.365,363.957,352.21z"/>
				<path style="opacity:0.6;" d="M363.957,352.21c-10.09,5.825-26.449,5.825-36.539,0c-5.045-2.913-7.568-6.73-7.568-10.548h0
					v3.132h0.009c0.095,3.744,2.611,7.471,7.558,10.328c10.09,5.826,26.449,5.826,36.539,0c5.163-2.981,7.677-6.91,7.556-10.816
					v-2.375C371.398,345.658,368.884,349.365,363.957,352.21z"/>
			</g>
			<g>
				<path style="fill:#BA68C8;" d="M342.207,244.587c0,42.744,0,16.035,0,58.779c0,12.13,0,24.26,0,36.39c0,4.479,6.96,4.486,6.96,0
					c0-42.744,0-83.038,0-95.168C349.167,240.109,342.207,240.101,342.207,244.587L342.207,244.587z"/>
			</g>
			<g>
				<path style="fill:#BA68C8;" d="M337.582,229.985v21.162l0,0c0,1.198,0.791,2.395,2.374,3.309c3.165,1.828,8.297,1.828,11.462,0
					c1.583-0.914,2.374-2.111,2.374-3.309v-21.162H337.582z"/>
				<path style="opacity:0.7;" d="M337.582,229.985v21.162l0,0c0,1.198,0.791,2.395,2.374,3.309c3.165,1.828,8.297,1.828,11.462,0
					c1.583-0.914,2.374-2.111,2.374-3.309v-21.162H337.582z"/>
			</g>
			<g>
				<ellipse style="fill:#BA68C8;" cx="345.687" cy="203.353" rx="47.455" ry="27.398"/>
				<ellipse style="opacity:0.4;" cx="345.687" cy="203.353" rx="47.455" ry="27.398"/>
				<path style="fill:#BA68C8;" d="M379.243,222.726c-18.532,10.699-48.579,10.699-67.111,0
					c-9.266-5.35-13.899-12.362-13.899-19.373h0v5.752h0.017c0.175,6.876,4.795,13.722,13.883,18.968
					c18.532,10.7,48.579,10.7,67.111,0c9.483-5.475,14.101-12.691,13.879-19.866v-4.363
					C392.91,210.692,388.292,217.502,379.243,222.726z"/>
				<path style="opacity:0.6;" d="M379.243,222.726c-18.532,10.699-48.579,10.699-67.111,0c-9.266-5.35-13.899-12.362-13.899-19.373
					h0v5.752h0.017c0.175,6.876,4.795,13.722,13.883,18.968c18.532,10.7,48.579,10.7,67.111,0
					c9.483-5.475,14.101-12.691,13.879-19.866v-4.363C392.91,210.692,388.292,217.502,379.243,222.726z"/>
			</g>
		</g>
		<g>
			<path style="fill:#BA68C8;" d="M333.616,174.041h-10.62h-10.701l1.913,22.571h0.008c0.112,1.202,0.954,2.385,2.544,3.304
				c3.422,1.976,8.971,1.976,12.394,0c1.59-0.918,2.432-2.102,2.544-3.304h0.006L333.616,174.041z"/>
			<g>
				<path style="fill:#E0E0E0;" d="M334.98,172.808v-1.788h-0.421c-0.528-1.137-1.554-2.214-3.1-3.106
					c-4.696-2.711-12.309-2.711-17.005,0c-1.546,0.893-2.572,1.969-3.1,3.106h-0.422v1.802c0,1.777,1.174,3.553,3.522,4.909
					c4.696,2.711,12.309,2.711,17.005,0C333.813,176.372,334.986,174.589,334.98,172.808z"/>
				<path style="fill:#EBEBEB;" d="M331.459,176.034c-4.696,2.711-12.309,2.711-17.005,0c-4.696-2.711-4.696-7.107,0-9.818
					c4.696-2.711,12.309-2.711,17.005,0C336.155,168.927,336.155,173.323,331.459,176.034z"/>
				<path style="fill:#E0E0E0;" d="M332.59,170.381v-1.433h-0.337c-0.423-0.911-1.245-1.774-2.484-2.489
					c-3.762-2.172-9.863-2.172-13.625,0c-1.239,0.715-2.061,1.578-2.484,2.489h-0.338v1.444c0,1.424,0.941,2.847,2.822,3.933
					c3.763,2.172,9.863,2.172,13.625,0C331.655,173.237,332.595,171.808,332.59,170.381z"/>
				<path style="fill:#F5F5F5;" d="M329.769,172.966c-3.763,2.172-9.863,2.172-13.625,0c-3.763-2.172-3.763-5.694,0-7.867
					c3.762-2.172,9.863-2.172,13.625,0C333.532,167.272,333.532,170.794,329.769,172.966z"/>
				<path style="fill:#F0F0F0;" d="M328.197,171.819c-2.889,1.671-7.589,1.671-10.489,0c-2.803-1.617-2.9-4.204-0.291-5.875
					c0.097-0.065,0.194-0.129,0.291-0.183c0.604-0.345,1.294-0.625,2.027-0.83c2.76-0.765,6.177-0.496,8.462,0.83
					C331.097,167.432,331.097,170.148,328.197,171.819z"/>
				<path style="fill:#E0E0E0;" d="M317.711,166.624c2.897-1.672,7.594-1.672,10.49,0c1.259,0.727,1.969,1.65,2.134,2.598
					c0.215-1.235-0.496-2.513-2.134-3.458c-2.897-1.672-7.594-1.672-10.49,0c-1.638,0.946-2.348,2.224-2.134,3.458
					C315.742,168.274,316.452,167.351,317.711,166.624z"/>
				<path style="fill:#E0E0E0;" d="M321.676,166.915l-2.156,1.369l-2.102-1.509v-0.83c0.097-0.065,0.194-0.129,0.291-0.183
					c0.604-0.345,1.294-0.625,2.027-0.83v0.625L321.676,166.915z"/>
			</g>
		</g>
		<g>
			<path style="fill:#BA68C8;" d="M378.519,186.526h-10.62h-10.701l1.913,22.571h0.008c0.112,1.202,0.954,2.385,2.544,3.304
				c3.422,1.976,8.971,1.976,12.394,0c1.59-0.918,2.432-2.102,2.544-3.304h0.006L378.519,186.526z"/>
			<g>
				<path style="fill:#E0E0E0;" d="M379.882,185.293v-1.788h-0.421c-0.528-1.137-1.554-2.214-3.1-3.106
					c-4.696-2.711-12.309-2.711-17.005,0c-1.546,0.893-2.572,1.969-3.1,3.106h-0.422v1.802c0,1.777,1.174,3.553,3.522,4.909
					c4.696,2.711,12.309,2.711,17.005,0C378.716,188.857,379.889,187.074,379.882,185.293z"/>
				<ellipse style="fill:#EBEBEB;" cx="367.859" cy="183.61" rx="12.024" ry="6.942"/>
				<path style="fill:#E0E0E0;" d="M377.493,182.866v-1.433h-0.337c-0.423-0.911-1.245-1.774-2.484-2.489
					c-3.763-2.172-9.863-2.172-13.625,0c-1.239,0.715-2.061,1.578-2.484,2.489h-0.338v1.444c0,1.424,0.941,2.847,2.822,3.933
					c3.763,2.172,9.863,2.172,13.625,0C376.558,185.722,377.498,184.294,377.493,182.866z"/>
				<path style="fill:#F5F5F5;" d="M374.672,185.451c-3.763,2.172-9.863,2.172-13.625,0c-3.763-2.172-3.763-5.694,0-7.867
					c3.763-2.172,9.863-2.172,13.625,0C378.435,179.757,378.435,183.279,374.672,185.451z"/>
				<path style="fill:#F0F0F0;" d="M373.1,184.304c-2.889,1.671-7.589,1.671-10.489,0c-2.803-1.617-2.9-4.204-0.291-5.875
					c0.097-0.065,0.194-0.129,0.291-0.183c0.604-0.345,1.294-0.625,2.027-0.83c2.76-0.765,6.177-0.496,8.462,0.83
					C376,179.917,376,182.634,373.1,184.304z"/>
				<path style="fill:#E0E0E0;" d="M362.614,179.11c2.897-1.672,7.594-1.672,10.49,0c1.259,0.727,1.969,1.65,2.134,2.598
					c0.215-1.235-0.496-2.513-2.134-3.458c-2.897-1.672-7.594-1.672-10.49,0c-1.638,0.946-2.348,2.224-2.134,3.458
					C360.645,180.759,361.355,179.836,362.614,179.11z"/>
				<path style="fill:#E0E0E0;" d="M366.579,179.4l-2.156,1.369l-2.102-1.509v-0.83c0.097-0.065,0.194-0.129,0.291-0.183
					c0.604-0.345,1.294-0.625,2.027-0.83v0.625L366.579,179.4z"/>
			</g>
		</g>
	</g>
</g>
<g id="Character_3">
	<g>
		<path style="fill:#945959;" d="M434.634,196.317l6.611,18.659c1.346,3.8,0.744,8.019-1.612,11.29l-10.048,13.949l-7.182-10.467
			l6.575-10.342l-5.872-12.629v-4.907L434.634,196.317z"/>
		<path style="fill:#BA68C8;" d="M419.017,174.041c0,0,5.036-0.497,7.599,3.499c2.564,3.996,8.017,18.778,8.017,18.778
			s-4.438,5.858-12.711,6.971L419.017,174.041z"/>
		<path style="opacity:0.3;fill:#FFFFFF;" d="M419.017,174.041c0,0,5.036-0.497,7.599,3.499c2.564,3.996,8.017,18.778,8.017,18.778
			s-4.438,5.858-12.711,6.971L419.017,174.041z"/>
		<g>
			<g>
				<path style="fill:#263238;" d="M427.42,377.261c-0.632,1.379-2.353,2.514-4.15,2.514c-1.796,0-5.331-1.025-6.969-5.234
					c-1.638-4.209-4.254-6.106-4.945-6.84c-1.049-1.117-5.075-4.755-5.498-8.606c-0.027,0.242-0.042,0.494-0.042,0.758
					c0,4.084,4.433,8.073,5.54,9.252c0.69,0.734,3.306,2.632,4.945,6.84c1.639,4.209,5.173,5.234,6.969,5.234
					c1.796,0,3.518-1.135,4.15-2.514c0.364-0.795,0.326-1.326,0.23-2.11C427.605,376.776,427.539,377.003,427.42,377.261z"/>
			</g>
			<g>
				<path style="fill:#BA68C8;" d="M426.694,366.92l0.211,0.233c0.537,0.593,0.803,1.377,0.733,2.174
					c-0.076,0.872-0.159,2.124-0.159,3.475c0,2.521,0.573,3.08-0.059,4.459c-0.632,1.379-2.353,2.514-4.15,2.514
					c-1.796,0-5.331-1.025-6.969-5.234c-1.639-4.209-4.255-6.106-4.945-6.84c-1.108-1.179-5.541-5.168-5.541-9.252
					s3.383-5.533,5.404-5.533c2.021,0,4.715,1.188,6.811,4.219C420.127,360.166,426.694,366.92,426.694,366.92z"/>
			</g>
			<g style="opacity:0.3;">
				<path d="M426.694,366.92l0.211,0.233c0.537,0.593,0.803,1.377,0.733,2.174c-0.076,0.872-0.159,2.124-0.159,3.475
					c0,2.521,0.573,3.08-0.059,4.459c-0.632,1.379-2.353,2.514-4.15,2.514c-1.796,0-5.331-1.025-6.969-5.234
					c-1.639-4.209-4.255-6.106-4.945-6.84c-1.108-1.179-5.541-5.168-5.541-9.252s3.383-5.533,5.404-5.533
					c2.021,0,4.715,1.188,6.811,4.219C420.127,360.166,426.694,366.92,426.694,366.92z"/>
			</g>
			<path style="fill:#EBEBEB;" d="M412.941,362.38c-0.09,0-0.181-0.024-0.263-0.076c-0.23-0.145-0.299-0.45-0.154-0.68
				c0.101-0.16,2.531-3.927,6.678-3.506c0.271,0.028,0.468,0.27,0.441,0.541c-0.028,0.271-0.273,0.464-0.541,0.441
				c-3.553-0.364-5.723,3.017-5.745,3.051C413.265,362.299,413.104,362.38,412.941,362.38z"/>
			<path style="fill:#EBEBEB;" d="M415.384,364.795c-0.09,0-0.181-0.024-0.263-0.076c-0.23-0.145-0.299-0.45-0.154-0.68
				c0.102-0.161,2.526-3.925,6.678-3.506c0.271,0.028,0.468,0.27,0.441,0.541s-0.27,0.465-0.541,0.441
				c-3.546-0.366-5.723,3.017-5.745,3.051C415.708,364.713,415.548,364.795,415.384,364.795z"/>
			<path style="fill:#FAFAFA;" d="M417.516,356.467c-2.01-2.525-4.435-3.551-6.296-3.551c-2.021,0-5.404,1.45-5.404,5.533
				c0,2.1,1.173,4.172,2.462,5.853c0.045-0.921,0.486-5.107,4.738-6.868C414.533,356.806,416.092,356.539,417.516,356.467z"/>
			<path style="fill:#945959;" d="M431.48,312.199l-1.4-4.386l2.525-36.903l-22.562,7.542l0.924,32.259
				c0.049,1.707,0.193,3.41,0.432,5.101l4.639,32.789c0.811,0.798,3.097,2.572,7.433,2.572c2.953,0,4.909-1.358,6.105-2.64
				l3.152-20.117C433.578,322.987,433.15,317.434,431.48,312.199z"/>
			<path style="fill:#BA68C8;" d="M423.47,351.173c-4.336,0-6.622-1.774-7.433-2.572l2.793,19.739c5.439,3.722,7.642,0,7.642,0
				l3.103-19.808C428.38,349.815,426.424,351.173,423.47,351.173z"/>
			<path style="opacity:0.5;fill:#FFFFFF;" d="M423.47,351.173c-4.336,0-6.622-1.774-7.433-2.572l2.793,19.739
				c5.439,3.722,7.642,0,7.642,0l3.103-19.808C428.38,349.815,426.424,351.173,423.47,351.173z"/>
		</g>
		<g>
			<path style="fill:#BA68C8;" d="M390.153,377.182l-4.091,3.002c0,0-10.384,0.805-13.308,0.978
				c-2.924,0.173-6.617,1.514-7.417,4.686c-0.696,2.759,0.82,5.617,8.071,6.54c7.25,0.923,9.749-0.769,14.998,0.123
				c4.97,0.844,11.994,3.137,15.447-2.682c0.365-0.615,0.465-1.355,0.283-2.046c-0.393-1.489-1.106-4.236-1.271-5.201
				c-0.23-1.35-0.436-5.858-1.716-5.858C399.868,376.725,390.153,377.182,390.153,377.182z"/>
			<path style="opacity:0.3;" d="M390.153,377.182l-4.091,3.002c0,0-10.384,0.805-13.308,0.978
				c-2.924,0.173-6.617,1.514-7.417,4.686c-0.696,2.759,0.82,5.617,8.071,6.54c7.25,0.923,9.749-0.769,14.998,0.123
				c4.97,0.844,11.994,3.137,15.447-2.682c0.365-0.615,0.465-1.355,0.283-2.046c-0.393-1.489-1.106-4.236-1.271-5.201
				c-0.23-1.35-0.436-5.858-1.716-5.858C399.868,376.725,390.153,377.182,390.153,377.182z"/>
			<path style="fill:#37474F;" d="M404.163,388.982c-0.058,0.296-0.155,0.584-0.311,0.847c-3.453,5.819-10.477,3.526-15.447,2.682
				c-5.249-0.892-7.747,0.8-14.998-0.123c-5.766-0.734-7.898-2.692-8.183-4.851c-0.325,2.559,1.467,5.074,8.183,5.929
				c7.25,0.923,9.749-0.769,14.998,0.123c4.97,0.844,12.334,3.477,15.787-2.342C404.538,390.664,404.34,389.673,404.163,388.982z"/>
			<path style="fill:#BA68C8;" d="M388.026,358.482l2.126,18.699c0,0,0.413,4.027,5.688,4.027s5.307-4.484,5.307-4.484l1.365-18.242
				H388.026z"/>
			<path style="opacity:0.5;fill:#FFFFFF;" d="M388.026,358.482l2.126,18.699c0,0,0.413,4.027,5.688,4.027s5.307-4.484,5.307-4.484
				l1.365-18.242H388.026z"/>
			<path style="fill:#945959;" d="M382.457,284.963v17.165c0,2.815,0.15,5.628,0.449,8.428l5.121,47.927c0,0,8.143,6.157,14.487,0
				l2.519-28.891c0.567-6.506-0.215-13.06-2.298-19.25l0,0l5.048-25.379H382.457z"/>
			<path style="fill:#FAFAFA;" d="M376.227,380.925c-1.452,0.105-2.714,0.193-3.473,0.237c-2.924,0.173-6.617,1.514-7.417,4.686
				c-0.696,2.759,0.82,5.617,8.071,6.54C372.095,383.831,376.226,380.925,376.227,380.925z"/>
			<path style="fill:#EBEBEB;" d="M377.796,386c-0.272,0-0.493-0.221-0.493-0.493c0-3.111,2.449-5.166,2.554-5.251
				c0.209-0.172,0.519-0.144,0.693,0.067c0.173,0.209,0.144,0.521-0.065,0.694c-0.022,0.019-2.195,1.853-2.195,4.491
				C378.289,385.779,378.068,386,377.796,386z"/>
			<path style="fill:#EBEBEB;" d="M382.09,385.771c-0.272,0-0.493-0.221-0.493-0.493c0-3.111,2.449-5.165,2.554-5.251
				c0.209-0.172,0.519-0.144,0.693,0.067c0.173,0.209,0.144,0.521-0.065,0.694c-0.022,0.019-2.195,1.853-2.195,4.49
				C382.583,385.55,382.363,385.771,382.09,385.771z"/>
		</g>
		<path style="fill:#455A64;" d="M387.934,225.441c0,0-5.477,12.097-5.477,23.474c0,11.377,0,35.936,0,35.936
			s12.453,10.393,30.301,7.451c17.848-2.942,21.263-8.854,21.263-8.854v-26.032c0-10.671-2.76-21.16-8.012-30.449l-2.389-4.226
			L387.934,225.441z"/>
		<path style="fill:#BA68C8;" d="M387.934,218.994v6.448c0,0,4.838,4.308,17.656,4.308c12.819,0,18.03-7.009,18.03-7.009
			l-2.647-4.18L387.934,218.994z"/>
		<path style="opacity:0.3;" d="M387.934,218.994v6.448c0,0,4.838,4.308,17.656,4.308c12.819,0,18.03-7.009,18.03-7.009l-2.647-4.18
			L387.934,218.994z"/>
		<path style="fill:#BA68C8;" d="M396.64,178.636l-4.616,1.635l-7.961,17.267v12.805l3.871,8.65c0,0,6.769,5.504,17.485,5.504
			c10.816,0,15.554-5.938,15.554-5.938s2.94-13.09,5.039-21.456c2.099-8.366-1.512-20.048-6.994-23.063l-7.245,1.192L396.64,178.636
			z"/>
		<path style="fill:#945959;" d="M390.047,206.388c0,0-10.929,17.307-12.627,20.272c-1.698,2.965-6.573,5.502-16.942-5.019
			c-10.369-10.521-13.483-13.992-13.483-13.992s-13.619-4.762-16.797-8.596c-3.177-3.834-4.436-9.439-1.816-8.553
			c2.62,0.886,16.86,6.028,18.47,1.655c0,0-1.04-1.992-1.04-4.156c0-2.164,0.937-3.926,2.151-3.926c1.214,0,0.851,2.17,1.703,3.926
			c0.852,1.756,6.147,8.962,5.245,12.378l15.074,12.171l7.435-14.452L390.047,206.388z"/>
		<path style="fill:#945959;" d="M408.226,178.81c-5.239,1.669-11.586-0.174-11.586-0.174v-17.715h15.132v14.312
			C411.772,175.233,411.184,177.868,408.226,178.81z"/>
		<polygon style="fill:#703838;" points="385.753,149.994 385.753,157.999 381.066,156.56 		"/>
		<path style="fill:#263238;" d="M410.447,129.159c-3.122-0.815-14.03-3.032-23.729,5.071c-2.144,1.791-4.604,6.56-5.395,12.521
			c0,0,0.879,0.803,3.973,2.147L410.447,129.159z"/>
		<path style="fill:#945959;" d="M403.619,132.446c-4.767-0.524-15.193,1.019-17.733,13.361c-2.54,12.342-2.475,22.144,3.86,23.779
			c6.335,1.634,21.79-1.382,25.566-17.307C419.087,136.355,408.268,132.957,403.619,132.446z"/>
		<path style="fill:#263238;" d="M390.441,135.452c0,0-1.648,6.467,0.877,11.543c1.297,2.607,1.592,5.671,0.546,8.405
			c-0.514,1.343-1.22,2.696-2.187,3.785c0,0,5.225-0.714,5.225-4.983c0,0,1.684,4.392,2.118,7.425
			c0.434,3.033,2.252,5.587,7.904,7.151c2.745,0.76,6.259,0.409,8.069-0.716c0,0,5.535-3.771,7.756-6.852
			c2.222-3.082,7.029-14.024,2.041-22.588C417.801,130.057,405.151,122.885,390.441,135.452z"/>
		<path style="fill:#945959;" d="M394.901,154.202c0,0,0.627-5.253,4.278-5.304c4.009-0.057,4.499,3.809,4.426,5.181
			c-0.19,3.605-2.376,7.119-8.704,5.106V154.202z"/>
		<path style="fill:#BA68C8;" d="M420.278,165.56c0,2.298-1.863,4.16-4.16,4.16s-4.16-1.863-4.16-4.16c0-2.298,1.863-4.16,4.16-4.16
			S420.278,163.262,420.278,165.56z"/>
		<path style="fill:#263238;" d="M416.481,168.975c-0.814-0.667-1.448-1.545-1.678-2.572c-0.358-1.596,0.135-2.638,0.759-3.295
			c0.653-0.687,1.593-1.021,2.542-1.015c1.089,0.007,2.932,0.119,4.6,0.698c4.384,1.521,7.806,7.942,3.229,18.012
			c-1.359,2.99-1.741,7.421,0.85,9.037c0.299,0.186,0.173,0.638-0.179,0.635c-3.829-0.026-12.145-1.065-9.727-9.846
			C419.019,172.846,417.741,170.009,416.481,168.975z"/>
		<path style="fill:#263238;" d="M390.441,135.452c0,0-4.207,3.137-3.502,13.94c0,0,2.474,1.215,4.359,0.845
			c0,0-0.427-5.844,1.889-10.367L390.441,135.452z"/>
		<path style="fill:#BA68C8;" d="M392.024,180.271c0,0-5.273,1.898-8.714,7.239c-2.376,3.687-5.889,10.586-5.889,10.586
			s3.719,6.485,12.627,8.291c0,0,3.632-6.16,4.677-7.678c1.044-1.518,5.605-12.858-1.152-18.987L392.024,180.271z"/>
		<path style="opacity:0.3;fill:#FFFFFF;" d="M392.024,180.271c0,0-5.273,1.898-8.714,7.239c-2.376,3.687-5.889,10.586-5.889,10.586
			s3.719,6.485,12.627,8.291c0,0,3.632-6.16,4.677-7.678c1.044-1.518,5.605-12.858-1.152-18.987L392.024,180.271z"/>
	</g>
</g>
<g id="Character_1">
	<g>
		<g>
			<path style="fill:#263238;" d="M170.358,376.812v0.139c0,1.921-0.444,3.802-1.172,5.58c-0.425,1.038-0.804,2.496-0.804,4.399
				v6.171c0,0.533-0.432,0.965-0.965,0.965l0,0c-0.533,0-0.965-0.432-0.965-0.965v-9.509L170.358,376.812z"/>
			<path style="fill:#263238;" d="M167.2,370.515c0,0-3.306,2.433-3.306,8.883c0,6.45-4.795,12.114-7.223,13.569
				c-2.428,1.455-7.818-2.021-7.818-2.021s-5.734,4.869-5.734,7.06s2.804,3.987,9.281,3.085c6.477-0.902,11.857-1.834,12.868-8.84
				c1.184-8.205,1.223-9.248,3.694-11.948C171.432,377.602,170.492,372.006,167.2,370.515z"/>
			<path style="fill:#945959;" d="M168.214,353.67l-1.062,15.7c0,0-0.864,24.362-12.549,24.362c0,0-5.803,0-6.08,0s0-3.931,0-3.931
				s6.71-9.768,7.203-19.469l-0.596-16.663H168.214z"/>
			<path style="fill:#37474F;" d="M167.152,369.371c0,0-2.676,1.927-3.357,8.883c-0.76,7.766-4.868,12.114-7.334,13.569
				c-2.466,1.455-7.938-2.021-7.938-2.021s-5.822,4.869-5.822,7.06c0,2.191,2.847,3.987,9.423,3.085
				c6.576-0.902,10.888-2.062,12.098-9.041c1.21-6.979,1.242-8.614,3.751-11.314C170.48,376.891,172.113,374.374,167.152,369.371z"
				/>
		</g>
		<path style="fill:#455A64;" d="M160.304,232.981l-6.04,54.219c-1.073,9.63-1.38,19.33-0.919,29.009l1.784,37.461
			c0,0,6.968,4.934,13.085,0l4.842-27.447c0.837-4.748,0.494-9.628-1.001-14.212l0,0l11.067-34.336l-5.346-43.585L160.304,232.981z"
			/>
		<path style="fill:#37474F;" d="M163.431,249.502c0,0,2.958,8.668,11.502,11.459l3.656,30.777l4.533-14.062l-3.456-28.174H163.431z
			"/>
		<g>
			<path style="fill:#263238;" d="M205.081,391.861V392c0,1.921-0.444,3.802-1.172,5.58c-0.425,1.038-0.804,2.496-0.804,4.399v6.171
				c0,0.533-0.432,0.965-0.965,0.965l0,0c-0.533,0-0.965-0.432-0.965-0.965v-9.509L205.081,391.861z"/>
			<path style="fill:#263238;" d="M201.923,385.565c0,0-3.306,2.433-3.306,8.883c0,6.45-4.795,12.114-7.223,13.569
				c-2.428,1.455-7.818-2.021-7.818-2.021s-5.734,4.869-5.734,7.06c0,2.191,2.804,3.987,9.281,3.085
				c6.477-0.902,11.857-1.834,12.868-8.841c1.184-8.205,1.223-9.248,3.694-11.948C206.155,392.652,205.215,387.056,201.923,385.565z
				"/>
			<path style="fill:#945959;" d="M202.936,368.72l-1.062,15.7c0,0-0.864,24.362-12.549,24.362c0,0-5.803,0-6.08,0s0-3.931,0-3.931
				s6.71-9.768,7.203-19.469l-0.596-16.662H202.936z"/>
			<path style="fill:#37474F;" d="M201.874,384.421c0,0-2.676,1.927-3.357,8.883c-0.76,7.766-4.868,12.114-7.334,13.569
				c-2.466,1.455-7.938-2.021-7.938-2.021s-5.822,4.869-5.822,7.06s2.847,3.987,9.423,3.085c6.576-0.902,10.888-2.062,12.098-9.041
				c1.21-6.979,1.242-8.614,3.751-11.314C205.203,391.941,206.835,389.424,201.874,384.421z"/>
		</g>
		<path style="fill:#455A64;" d="M195.419,232.699c0,0,13.319,14.693,13.319,31.367c0,16.674-3.714,52.362-3.714,52.362l1.058,2.645
			c1.685,4.213,2.258,8.77,1.666,13.254l-4.813,36.458c0,0-5.449,4.978-13.085,0l-4.051-49.138l-9.653-62.382
			c0,0-7.064-1.543-12.716-7.763v-17.163L195.419,232.699z"/>
		<path style="fill:#37474F;" d="M160.1,226.49l0.204,6.491c0,0,4.106,3.607,16.675,3.607c12.569,0,18.44-3.607,18.44-3.607
			l-0.004-7.03L160.1,226.49z"/>
		<path style="fill:#945959;" d="M168.304,183.499c-2.704,0.31-10.374-0.782-14.813,10.356c-4.439,11.138-8.403,22.303-8.403,22.303
			l-8.149-8.451c0,0-9.536-14.306-11.799-12.725c-2.263,1.58-1.448,4.161-0.806,5.993c0.642,1.832,3.022,7.583,3.807,9.153
			c0.785,1.57,10.55,23.961,19.319,23.961c5.869,0,12.311-19.788,12.311-19.788L168.304,183.499z"/>
		<path style="fill:#BA68C8;" d="M198.746,204.046c-0.065,0.464-0.129,0.927-0.194,1.38c-2.027,14.337-3.137,20.525-3.137,20.525
			s-8.98,3.989-20.482,3.989s-14.833-3.45-14.833-3.45l-1.132-11.772c0,0-4.549-3.439-4.549-11.437
			c0-7.999,13.884-19.619,13.884-19.619l4.161-0.205l14.294,0.517l9.831,0.862l1.412,0.119
			C198.002,184.955,200.891,188.728,198.746,204.046z"/>
		<g>
			<g>
				<path style="fill:#263238;" d="M191.597,141.948c0,0,1.581-1.501,1.36-4.535c-0.221-3.034,2.639-0.834,2.878,0.911
					c0.239,1.745-1.544,4.324-3.194,4.894L191.597,141.948z"/>
				<path style="fill:#263238;" d="M192.646,142.56c0,0,2.156,0.318,4.407-1.73c2.251-2.047,2.285,1.561,1.06,2.827
					c-1.225,1.265-4.355,1.455-5.822,0.508L192.646,142.56z"/>
			</g>
			<path style="fill:#263238;" d="M202.576,169.979c-1.612-1.604-2.603-3.711-2.529-5.984c0.161-4.922-0.473-12.253-4.593-18.417
				c-6.917-10.35-15.77-9.682-22.993-8.972c-7.223,0.709-15.389-2.303-17.646,1.584c-4.049,6.975,1.279,9.013,1.279,9.013
				c-3.506,8.097,4.847,10.092,4.847,10.092l4.228,11.398c-0.757-0.283-1.582-0.426-2.462-0.338
				c-2.962,0.296-5.287,2.978-5.113,5.949c0.174,2.959,2.628,5.304,5.63,5.304c0.703,0,1.368-0.144,1.989-0.379
				c0.925,1.851,2.818,3.134,5.028,3.134c0.978,0,1.897-0.249,2.698-0.687c2.003-1.095,4.186-1.822,6.468-1.822l2.368,0
				c2.282,0,4.465,0.726,6.467,1.822c0.801,0.439,1.721,0.688,2.699,0.688c2.303,0,4.277-1.385,5.153-3.364
				c1.219,0.607,2.656,0.837,4.217,0.33c2.064-0.671,3.627-2.518,3.882-4.673C204.41,172.825,203.749,171.146,202.576,169.979z"/>
			<path style="fill:#945959;" d="M172.461,175.48v7.973c0,0-9.152,11.055-0.231,11.861c8.921,0.805,14.529-11.34,14.529-11.34
				V167.31L172.461,175.48z"/>
			<path style="fill:#703838;" d="M187.221,162.371l0.003,0.539c-3.341,13.177-12.024,16.048-14.827,16.719l-0.102-20.399
				l14.499-0.069L187.221,162.371z"/>
			<path style="fill:#945959;" d="M175,138.855c-4.743,0.389-14.608,3.859-14.754,16.362c-0.146,12.503,1.767,22.039,8.247,22.436
				s20.966-5.458,21.64-21.684C190.806,139.744,179.626,138.476,175,138.855z"/>
			<polygon style="fill:#703838;" points="170.128,160.239 170.242,167.579 165.923,166.326 			"/>
			<path style="fill:#263238;" d="M175.453,160.042c0.012,0.826-0.649,1.505-1.475,1.517c-0.826,0.012-1.505-0.649-1.517-1.475
				c-0.012-0.826,0.649-1.505,1.475-1.516C174.762,158.556,175.441,159.216,175.453,160.042z"/>
			<path style="fill:#263238;" d="M165.6,159.137c0.012,0.826-0.649,1.505-1.475,1.517c-0.826,0.012-1.505-0.649-1.517-1.475
				c-0.012-0.826,0.649-1.505,1.475-1.517C164.91,157.651,165.589,158.311,165.6,159.137z"/>
			<path style="fill:#BA68C8;" d="M162.239,156.069l2.9-1.778c0,0-1.139-1.151-2.246-0.434
				C161.785,154.573,162.239,156.069,162.239,156.069z"/>
			<path style="fill:#703838;" d="M171.633,169.907c0,0,1.16-0.51,3.652-2.014c0,0,0.776,1.994-0.852,2.814
				C172.805,171.527,171.633,169.907,171.633,169.907z"/>
			<path style="fill:#263238;" d="M163.322,144.061c0,0,3.189,16.989,26.527,15.613c0,0,5.642-17.603-8.722-21.994
				C166.763,133.289,163.322,144.061,163.322,144.061z"/>
			<path style="fill:#263238;" d="M162.239,156.069l2.9-1.778c0,0-1.139-1.151-2.246-0.434
				C161.785,154.573,162.239,156.069,162.239,156.069z"/>
			<path style="fill:#945959;" d="M186.307,161.254c0,0,1.154-4.93,4.632-4.592c3.819,0.372,3.875,4.1,3.66,5.398
				c-0.563,3.409-3.799,6.764-8.98,6.26L186.307,161.254z"/>
			<path style="fill:#263238;" d="M183.217,159.177c0,0-0.567,4.732,2.831,4.732l0.828-4.242L183.217,159.177z"/>
		</g>
		<path style="fill:#703838;" d="M145.088,216.159c0,0,2.713,2.654,4.01,5.42c0,0,0.013-3.166-3.342-7.282L145.088,216.159z"/>
		<g>
			<path style="fill:#263238;" d="M132.915,209.572l-10.96-20.855c-0.377-0.718,0.191-1.568,0.999-1.493l12.486,1.154
				c0.606,0.056,1.14,0.423,1.41,0.969l10.821,21.893c0.397,0.804-0.284,1.72-1.168,1.57l-11.894-2.011
				C133.883,210.677,133.257,210.223,132.915,209.572z"/>
			<path style="fill:#37474F;" d="M147.671,211.24l-10.821-21.893c-0.27-0.546-0.804-0.913-1.41-0.969l-12.486-1.154
				c-0.632-0.058-1.11,0.45-1.111,1.017c0.129-0.043,0.267-0.07,0.417-0.056l12.486,1.154c0.607,0.056,1.141,0.423,1.411,0.969
				l10.821,21.893c0.09,0.182,0.118,0.368,0.108,0.548C147.648,212.528,147.974,211.853,147.671,211.24z"/>
		</g>
		<path style="fill:#945959;" d="M126.395,197.167l5.625,10.704c0,0,12.204,0.991,11.824-4.52c-0.38-5.512-2.823-5.413-2.823-5.413
			S132.848,199.834,126.395,197.167z"/>
		<g>
			<path style="fill:#945959;" d="M223.777,225.81c-0.032,4.258-8.042,29.44-8.042,29.44l-7.621-4.323c0,0,1.768-6.597,1.725-12.903
				c-0.043-6.295,1.466-12.019,1.466-12.019s-4.312-7.977-12.752-20.579c-0.011-0.022-0.022-0.032-0.032-0.054
				c-7.955-11.858-2.609-19.641-1.93-20.536l1.412,0.119c8.904,1.1,12.063,10.37,15.264,15.976
				C216.468,206.547,223.82,221.563,223.777,225.81z"/>
			<path style="fill:#945959;" d="M208.114,250.927c0,0-1.187,0.903-2.366,1.436c-1.179,0.533-2.251,0.713-4.297,3.899
				c-1.318,2.052-3.227,1.875-3.049,3.289c0.179,1.42,4.856,0.678,6.348-1.506c0,0-0.704,3.196-2.43,4.875
				c-1.726,1.679-4.223,4.398-4.223,5.84c0,1.442,7.067,4.051,11.343,0.299c4.276-3.752,6.295-13.809,6.295-13.809L208.114,250.927z
				"/>
		</g>
	</g>
</g>
<g id="Speech_Bubbles">
	<g>
		<path style="fill:#E0E0E0;" d="M369.71,51.874l-41.086-23.721c-3.374-1.948-6.108,0.12-6.108,4.618v23.926
			c0,4.498,2.735,9.723,6.108,11.671l3.786,2.186l-6.434,13.6l16.513-7.78l27.221,15.716c3.374,1.948,6.108-0.12,6.108-4.618V63.545
			C375.819,59.047,373.084,53.822,369.71,51.874z"/>
		<g>
			<path style="fill:#BA68C8;" d="M367.315,63.439c-0.085,0-0.171-0.021-0.25-0.067l-36.296-20.956
				c-0.239-0.138-0.321-0.444-0.183-0.683c0.138-0.24,0.443-0.321,0.683-0.183l36.296,20.956c0.239,0.138,0.321,0.444,0.183,0.683
				C367.656,63.35,367.488,63.439,367.315,63.439z"/>
			<path style="fill:#BA68C8;" d="M367.315,71.093c-0.085,0-0.171-0.021-0.25-0.067L330.769,50.07
				c-0.239-0.138-0.321-0.444-0.183-0.683c0.138-0.239,0.443-0.321,0.683-0.183l36.296,20.956c0.239,0.138,0.321,0.444,0.183,0.683
				C367.656,71.003,367.488,71.093,367.315,71.093z"/>
			<path style="fill:#BA68C8;" d="M350.602,69.097c-0.085,0-0.171-0.021-0.25-0.067l-19.583-11.306
				c-0.239-0.138-0.321-0.444-0.183-0.683c0.138-0.24,0.443-0.322,0.683-0.183l19.583,11.306c0.239,0.138,0.321,0.444,0.183,0.683
				C350.943,69.007,350.775,69.097,350.602,69.097z"/>
		</g>
	</g>
	<g>
		<path style="fill:#E0E0E0;" d="M412.378,91.759l-16.344-9.436c-2.035-1.175-3.685,0.072-3.685,2.786V99.54
			c0,2.713,1.65,5.865,3.685,7.04l3.777,2.181l3.094,13.337l2.494-10.111l6.979,4.029c2.035,1.175,3.685-0.072,3.685-2.785V98.799
			C416.063,96.085,414.413,92.933,412.378,91.759z"/>
		<g>
			<g>
				<path style="fill:#BA68C8;" d="M409.648,102.536c0,3.924-2.755,5.514-6.152,3.552c-3.398-1.962-6.152-6.733-6.152-10.656
					c0-3.924,2.755-5.514,6.152-3.552C406.893,93.842,409.648,98.613,409.648,102.536z"/>
			</g>
			<g style="opacity:0.2;">
				<path style="fill:#FFFFFF;" d="M409.648,102.536c0,3.924-2.755,5.514-6.152,3.552c-3.398-1.962-6.152-6.733-6.152-10.656
					c0-3.924,2.755-5.514,6.152-3.552C406.893,93.842,409.648,98.613,409.648,102.536z"/>
			</g>
			<g>
				<path style="fill:#FFFFFF;" d="M399.469,95.703c-0.11-0.063-0.215-0.194-0.267-0.345c-0.074-0.213-0.014-0.386,0.134-0.386
					l1.576,0l-1.576-1.82c-0.148-0.171-0.207-0.412-0.134-0.54c0.074-0.128,0.253-0.093,0.401,0.077l2.111,2.437
					c0.101,0.117,0.165,0.273,0.165,0.404c0,0.131-0.064,0.213-0.165,0.213l-2.111,0C399.56,95.744,399.514,95.729,399.469,95.703z"
					/>
			</g>
			<g>
				<path style="fill:#FFFFFF;" d="M407.175,100.152c-0.045-0.026-0.09-0.064-0.133-0.113l-2.111-2.437
					c-0.101-0.117-0.165-0.273-0.165-0.404c0-0.131,0.064-0.213,0.165-0.213l2.111,0c0.148,0.001,0.327,0.172,0.401,0.386
					c0.074,0.213,0.014,0.386-0.134,0.386l-1.576,0l1.576,1.82c0.148,0.17,0.207,0.412,0.134,0.54
					C407.39,100.207,407.284,100.215,407.175,100.152z"/>
			</g>
			<g>
				<path style="fill:#FFFFFF;" d="M403.495,103.068c-1.799-1.039-3.401-3.043-4.286-5.362c-0.052-0.137-0.052-0.267,0.002-0.342
					c0.053-0.075,0.152-0.084,0.258-0.022l8.053,4.649c0.106,0.061,0.204,0.183,0.258,0.32c0.054,0.137,0.055,0.268,0.002,0.345
					C406.897,103.952,405.294,104.106,403.495,103.068z M400.017,98.347c0.811,1.745,2.077,3.222,3.479,4.031
					c1.401,0.809,2.667,0.794,3.479-0.014L400.017,98.347z"/>
			</g>
		</g>
	</g>
	<g>
		<path style="fill:#BA68C8;" d="M116.48,196.176l-15.748-5.311c-2.551-16.067-16.46-28.355-33.254-28.355
			c-18.606,0-33.676,15.081-33.676,33.676c0,10.144,4.474,19.231,11.556,25.397c5.918,5.164,13.658,8.29,22.12,8.29
			c11.006,0,20.773-5.271,26.906-13.432c3.234-4.292,5.458-9.387,6.34-14.927L116.48,196.176z"/>
		<path style="opacity:0.6;fill:#FFFFFF;" d="M116.48,196.176l-15.748-5.311c-2.551-16.067-16.46-28.355-33.254-28.355
			c-18.606,0-33.676,15.081-33.676,33.676c0,10.144,4.474,19.231,11.556,25.397c5.918,5.164,13.658,8.29,22.12,8.29
			c11.006,0,20.773-5.271,26.906-13.432c3.234-4.292,5.458-9.387,6.34-14.927L116.48,196.176z"/>
		<g>
			<path style="fill:#455A64;" d="M94.384,216.442c-6.134,8.16-15.9,13.432-26.906,13.432c-8.462,0-16.202-3.126-22.12-8.29
				l11.89-4.333l16.083-3.309l5.153-1.466C84.111,210.879,90.169,212.388,94.384,216.442z"/>
			<g>
				<path style="fill:#263238;" d="M89.579,181.181c0,0,2.622-13.167-9.555-18.519c-12.176-5.352-31.207-3.341-35.377,13.369
					s6.559,27.166,12.599,29.417L89.579,181.181z"/>
				<g>
					<g>
						<path style="fill:#FFA8A7;" d="M57.247,217.255l1.811,2.86c2.773,4.379,7.751,6.853,12.916,6.419l0,0
							c3.604-0.303,5.738-4.176,4.068-7.384l-2.712-5.212v-20.716H57.247V217.255z"/>
					</g>
				</g>
				<path style="fill:#F28F8F;" d="M73.33,212.685c-5.684-2.195-11.624-6.598-14.775-14.052v-5.412H73.33V212.685z"/>
				<path style="fill:#FFA8A7;" d="M77.078,166.857c0,0,15.304,0.582,12.543,25.222c-1.299,11.589-2.251,17.998-12.171,17.998
					c-9.92,0-24.549-7.473-23.605-27.37C54.79,162.811,77.078,166.857,77.078,166.857z"/>
				<polygon style="fill:#F28F8F;" points="78.963,188.544 78.963,197.189 84.026,195.635 				"/>
				<g>
					<circle style="fill:#263238;" cx="73.33" cy="190.039" r="1.761"/>
					<path style="fill:#263238;" d="M83.155,188.811c0,0.973,0.789,1.762,1.761,1.762c0.973,0,1.761-0.789,1.761-1.762
						c0-0.973-0.789-1.761-1.761-1.761C83.943,187.049,83.155,187.838,83.155,188.811z"/>
					<path style="fill:#263238;" d="M87.062,185.143l-3.444-2.046c0,0,1.322-1.374,2.638-0.548S87.062,185.143,87.062,185.143z"/>
					<path style="fill:#263238;" d="M72.412,184.548l-3.107,2.529c0,0-0.834-1.715,0.394-2.666
						C70.927,183.46,72.412,184.548,72.412,184.548z"/>
				</g>
				<path style="fill:#F28F8F;" d="M81.344,200.694c0,0-2.797,0.255-4.744-1.271c0,0-0.324,2.498,1.769,2.976
					C80.462,202.878,81.344,200.694,81.344,200.694z"/>
				<path style="fill:#263238;" d="M84.916,170.353c0,0-1.671,5.912-14.196,4.974c-12.525-0.938-11.432,2.531-10.071,8.387
					c0.94,4.042,1.024,14.762-2.094,9.508H52.36v-12.384c0-8.74,7.085-15.826,15.826-15.826h6.195
					C78.543,165.012,82.456,166.996,84.916,170.353L84.916,170.353z"/>
				<path style="fill:#FFA8A7;" d="M58.708,192.588c0,0-0.628-5.929-4.742-6.042c-4.517-0.124-5.127,4.225-5.066,5.773
					c0.161,4.066,3.451,8.459,9.579,8.626L58.708,192.588z"/>
			</g>
		</g>
	</g>
	<g>
		<g>
			<path style="fill:#BA68C8;" d="M143.253,112.279c-1.671-8.376-6.317-15.394-12.612-20.18c-2.425-1.865-5.088-3.374-7.923-4.506
				c-0.981-0.399-1.973-0.744-2.997-1.035c-5.056-1.498-10.543-1.822-16.084-0.722c-1.391,0.28-2.749,0.636-4.064,1.078
				c-0.97,0.323-1.93,0.69-2.846,1.089c0,0.011,0,0.011-0.011,0.011c-0.259,0.108-0.507,0.216-0.744,0.334
				c-6.403,2.975-11.588,7.858-14.984,13.787c-3.902,6.813-5.455,15.016-3.805,23.317c1.067,5.336,3.331,10.122,6.468,14.132
				c0.625,0.798,1.272,1.552,1.962,2.296c2.425,2.576,5.239,4.765,8.322,6.468c0.55,0.302,1.11,0.593,1.682,0.863
				c1.585,0.765,3.223,1.401,4.916,1.908c3.484,1.054,7.183,1.535,10.962,1.388l11.616,25.166l-1.166-27.245
				c1.311-0.487,2.585-1.04,3.802-1.68c2.587-1.326,4.959-2.986,7.072-4.916c1.11-0.992,2.145-2.07,3.094-3.202
				C142.315,133.063,145.344,122.757,143.253,112.279z"/>
			<path style="opacity:0.6;fill:#FFFFFF;" d="M143.253,112.279c-1.671-8.376-6.317-15.394-12.612-20.18
				c-2.425-1.865-5.088-3.374-7.923-4.506c-0.981-0.399-1.973-0.744-2.997-1.035c-5.056-1.498-10.543-1.822-16.084-0.722
				c-1.391,0.28-2.749,0.636-4.064,1.078c-0.97,0.323-1.93,0.69-2.846,1.089c0,0.011,0,0.011-0.011,0.011
				c-0.259,0.108-0.507,0.216-0.744,0.334c-6.403,2.975-11.588,7.858-14.984,13.787c-3.902,6.813-5.455,15.016-3.805,23.317
				c1.067,5.336,3.331,10.122,6.468,14.132c0.625,0.798,1.272,1.552,1.962,2.296c2.425,2.576,5.239,4.765,8.322,6.468
				c0.55,0.302,1.11,0.593,1.682,0.863c1.585,0.765,3.223,1.401,4.916,1.908c3.484,1.054,7.183,1.535,10.962,1.388l11.616,25.166
				l-1.166-27.245c1.311-0.487,2.585-1.04,3.802-1.68c2.587-1.326,4.959-2.986,7.072-4.916c1.11-0.992,2.145-2.07,3.094-3.202
				C142.315,133.063,145.344,122.757,143.253,112.279z"/>
		</g>
		<g>
			<path style="fill:#263238;" d="M129.164,140.404c0,1.983-1.38,4.247-3.73,6.349c-2.307,2.059-5.562,3.967-9.357,5.271
				c-5.358,0.949-10.661,0.571-15.544-0.906c-1.692-0.507-3.331-1.143-4.916-1.908c-0.571-0.27-1.132-0.561-1.682-0.863
				c-3.083-1.703-5.897-3.891-8.322-6.468c-0.69-0.744-1.337-1.498-1.962-2.296c-0.733-6.77,4.042-13.539,4.98-16.288
				c1.326-3.902,2.124-18.142,2.285-21.215c0-0.054,0.011-0.097,0.011-0.151c0.011-0.28,0.022-0.431,0.022-0.431
				s4.269-0.97,9.669-1.132c0.302-0.022,0.614-0.022,0.938-0.022c6.037-0.075,13.227,0.916,17.409,5.314
				c1.261,1.304,2.242,2.9,2.857,4.862c0.367,1.175,0.604,2.479,0.679,3.935c0.054,1.035,0.119,2.005,0.194,2.921
				c0.054,0.593,0.108,1.164,0.172,1.714c0.011,0.172,0.032,0.334,0.054,0.485c0.334,2.932,0.776,5.25,1.294,7.147
				c0.28,1.046,0.582,1.962,0.895,2.781c1.143,3.04,2.382,4.689,3.18,6.543C128.829,137.267,129.164,138.56,129.164,140.404z"/>
			<path style="fill:#945959;" d="M135.912,140.63c-0.949,1.132-1.983,2.21-3.094,3.202c-2.113,1.93-4.484,3.59-7.072,4.916
				l-0.313-1.994l-2.738-17.388c0,0,0.981-0.065,2.415,0.14c3.277,0.464,8.904,2.296,10.424,9.4
				C135.653,139.455,135.782,140.037,135.912,140.63z"/>
			<path style="fill:#37474F;" d="M132.818,143.832c-2.113,1.93-4.484,3.59-7.072,4.916c-2.749,1.444-5.746,2.512-8.936,3.148
				c-0.248,0.054-0.485,0.097-0.733,0.129c-5.358,0.949-10.661,0.571-15.544-0.906c-1.692-0.507-3.331-1.143-4.916-1.908
				c-0.571-0.27-1.132-0.561-1.682-0.863c-0.345-11.621,1.736-16.73,1.736-16.73c0.334-0.097,0.711-0.194,1.121-0.302
				c0.065-0.022,0.14-0.032,0.205-0.043c2.857-0.69,6.964-1.401,6.964-1.401l13.259-0.291l5.476-0.216
				c1.854,1.951,3.827,4.236,5.595,6.683C130.102,138.528,131.719,141.18,132.818,143.832z"/>
			<g>
				<path style="fill:#263238;" d="M99.815,86.565c0,0-0.688-5.287-1.612-5.316c-0.924-0.03-1.388,4.465-1.388,4.465
					s-4.206-0.923-3.916,0.359c0.29,1.282,5.084,3.162,5.084,3.162L99.815,86.565z"/>
				<path style="fill:#263238;" d="M90.895,103.517c0.09,14.697,13.067,17.374,13.067,17.374l26.143-9.067
					c0,0,2.142-1.438,3.226-5.238c0.374-1.301,0.628-2.887,0.62-4.782c0.002-0.012-0.002-0.032-0.001-0.044
					c-0.035-6.177-3.739-13.296-13.381-16.573c-1.923-0.661-4.085-1.164-6.505-1.475c-1.105-0.142-2.173-0.229-3.205-0.248
					c-7.818-0.238-13.642,2.666-16.925,7.915c-0.718,1.15-1.313,2.41-1.778,3.781C91.306,97.622,90.878,100.422,90.895,103.517z"/>
				<g>
					<g>
						<path style="fill:#945959;" d="M103.961,129.872l0.597,1.035c2.883,4.997,7.134,9.066,12.251,11.729l1.657,0.862
							c1.11,0.577,2.435-0.23,2.431-1.481l0,0c-0.013-4.012-1.078-7.95-3.089-11.422l-0.59-1.019v-19.011h-13.258V129.872z"/>
					</g>
				</g>
				<path style="fill:#703838;" d="M103.961,113.422v0.479c2.336,7.549,7.728,12.647,13.258,15.675v-19.011h-12.891L103.961,113.422
					z"/>
				<path style="fill:#945959;" d="M117.026,88.47c4.693,0.602,14.335,4.498,13.91,16.924c-0.424,12.426-2.759,21.811-9.213,21.91
					c-6.455,0.099-20.577-6.376-20.507-22.523C101.286,88.633,112.449,87.882,117.026,88.47z"/>
				<polygon style="fill:#703838;" points="121.836,110.44 120.907,117.681 125.314,116.923 				"/>
				<g>
					<path style="fill:#263238;" d="M115.612,109.493c-0.049,0.82,0.576,1.524,1.396,1.574c0.82,0.049,1.524-0.576,1.574-1.396
						c0.049-0.82-0.576-1.524-1.396-1.574C116.365,108.048,115.661,108.673,115.612,109.493z"/>
					<path style="fill:#263238;" d="M125.439,109.043c-0.049,0.82,0.576,1.525,1.396,1.574c0.82,0.049,1.524-0.576,1.574-1.396
						c0.049-0.82-0.576-1.524-1.396-1.574C126.193,107.598,125.488,108.223,125.439,109.043z"/>
					<path style="fill:#263238;" d="M128.918,106.149l-2.8-1.898c0,0,1.184-1.091,2.251-0.329
						C129.436,104.683,128.918,106.149,128.918,106.149z"/>
				</g>
				<path style="fill:#703838;" d="M122.061,120.571c0,0-2.361,0.215-4.006-1.073c0,0-0.274,2.109,1.494,2.513
					C121.316,122.415,122.061,120.571,122.061,120.571z"/>
				<path style="fill:#263238;" d="M128.388,94.172c0,0-3.941,16.729-27.06,14.3c0,0-4.802-17.742,9.665-21.449
					C125.461,83.316,128.388,94.172,128.388,94.172z"/>
				<path style="fill:#945959;" d="M104.776,110.202c0,0-0.922-4.949-4.392-4.772c-3.81,0.195-4.036,3.896-3.882,5.195
					c0.404,3.411,3.466,6.891,8.635,6.626L104.776,110.202z"/>
			</g>
			<path style="fill:#945959;" d="M100.511,150.569l0.022,0.55c-1.692-0.507-3.331-1.143-4.916-1.908
				c-0.571-0.27-1.132-0.561-1.682-0.863c-3.083-1.703-5.897-3.891-8.322-6.468c1.164-7.169,6.716-9.82,11.179-10.564
				c0.065-0.022,0.14-0.032,0.205-0.043C96.997,131.273,102.322,134.529,100.511,150.569z"/>
		</g>
	</g>
</g>
</svg>
